<?xml version="1.0" standalone="no"?><!DOCTYPE svg PUBLIC "-//W3C//DTD SVG 1.1//EN" "http://www.w3.org/Graphics/SVG/1.1/DTD/svg11.dtd"><svg t="1726747490713" class="icon" viewBox="0 0 1024 1024" version="1.1" xmlns="http://www.w3.org/2000/svg" p-id="9621" xmlns:xlink="http://www.w3.org/1999/xlink" width="200" height="200"><path d="M 694.08 549.76 c 0 92.8 -75.52 168.32 -168.32 168.32 s -168.32 -75.52 -168.32 -168.32 c 0 -93.44 75.52 -168.64 168.32 -168.64 s 168.32 75.2 168.32 168.64 Z" fill="#0caaef" p-id="9622"></path><path d="M 917.76 239.36 h -119.36 L 646.4 152 c -16.64 -12.8 -27.84 -19.84 -48.96 -19.84 h -163.84 c -21.44 0 -42.24 7.04 -59.52 20.48 L 219.84 239.36 h -124.8 C 54.08 239.36 20.48 272.96 20.48 313.92 v 524.8 c 0 40.96 33.6 74.56 74.56 74.56 h 822.72 A 74.56 74.56 0 0 0 992 838.72 V 313.92 c 0 -40.96 -32.96 -74.56 -74.24 -74.56 Z M 525.76 781.44 c -130.88 0 -236.8 -106.24 -236.8 -236.8 s 106.24 -236.48 236.8 -236.48 c 130.88 0 236.8 106.24 236.8 236.48 c 0 130.56 -105.92 236.8 -236.8 236.8 Z" fill="#0caaef" p-id="9623"></path><path d="M 694.08 549.76 c 0 92.8 -75.52 168.32 -168.32 168.32 s -168.32 -75.52 -168.32 -168.32 c 0 -93.44 75.52 -168.64 168.32 -168.64 s 168.32 75.2 168.32 168.64 Z" fill="#0caaef" p-id="9624"></path><path d="M 694.08 549.76 c 0 92.8 -75.52 168.32 -168.32 168.32 s -168.32 -75.52 -168.32 -168.32 c 0 -93.44 75.52 -168.64 168.32 -168.64 s 168.32 75.2 168.32 168.64 Z" fill="#0caaef" p-id="9625"></path></svg>